<?xml version="1.0" standalone="no"?><svg xmlns:xlink="http://www.w3.org/1999/xlink" xmlns="http://www.w3.org/2000/svg" viewBox="0 0 2000 1000" preserveAspectRatio="xMaxYMax slice"><g transform="scale(2.5839793281653747)"><rect x="0" y="0" width="774" height="387" fill="#ffffff"/><rect x="0" y="0" width="77.4" height="77.4" fill="#7033ff"/><rect x="0" y="0" width="77.4" height="77.4" fill="#7033ff"/><rect x="77.4" y="0" width="77.4" height="77.4" fill="#ffffff"/><rect x="77.4" y="0" width="38.7" height="38.7" fill="#fc034e"/><polygon points="116.10000000000001,0 116.10000000000001,38.7 77.4,38.7" fill="#fc034e"/><rect x="116.1" y="0" width="38.7" height="38.7" fill="#ffffff"/><polygon points="116.1,0 154.8,0 116.1,38.7" fill="#ffffff"/><rect x="77.4" y="38.7" width="38.7" height="38.7" fill="#fc034e"/><polygon points="77.4,38.7 116.10000000000001,38.7 116.10000000000001,77.4" fill="#ffffff"/><rect x="116.1" y="38.7" width="38.7" height="38.7" fill="#ffffff"/><polygon points="116.1,38.7 154.8,77.4 116.1,77.4" fill="#ffffff"/><rect x="154.8" y="0" width="77.4" height="77.4" fill="#fc034e"/><polygon points="154.8,0 232.20000000000002,77.4 154.8,77.4" fill="#fc034e"/><rect x="232.2" y="0" width="77.4" height="77.4" fill="#ffffff"/><path d="M 232.2 77.4 A 77.4 77.4 0 0 1  309.6 0 L 232.2 77.4 A 77.4 77.4 0 0 0 309.6 0" fill="#ffffff"/><rect x="309.6" y="0" width="77.4" height="77.4" fill="#ffffff"/><rect x="309.6" y="0" width="38.7" height="38.7" fill="#7033ff"/><path d="M 309.6 38.7 A 38.7 38.7 0 0 1  348.3 0 L 348.3 38.7" fill="#ffffff"/><rect x="348.3" y="0" width="38.7" height="38.7" fill="#fc034e"/><path d="M 348.3 0 A 38.7 38.7 0 0 1 387 38.7 L 348.3 38.7" fill="#ffffff"/><rect x="309.6" y="38.7" width="38.7" height="38.7" fill="#fc034e"/><path d="M 309.6 38.7 A 38.7 38.7 0 0 0 348.3 77.4 L 348.3 38.7" fill="#fc034e"/><rect x="348.3" y="38.7" width="38.7" height="38.7" fill="#7033ff"/><path d="M 348.3 77.4 A 38.7 38.7 0 0 0 387 38.7 L 348.3 38.7" fill="#ffffff"/><rect x="387" y="0" width="77.4" height="77.4" fill="#ffffff"/><rect x="387" y="0" width="38.7" height="38.7" fill="#fc034e"/><path d="M 387 38.7 A 38.7 38.7 0 0 0 425.7 0 L 387 0" fill="#fc034e"/><rect x="425.7" y="0" width="38.7" height="38.7" fill="#7033ff"/><path d="M 425.7 0 A 38.7 38.7 0 0 0 464.4 38.7 L 464.4 0" fill="#fc034e"/><rect x="387" y="38.7" width="38.7" height="38.7" fill="#ffffff"/><path d="M 387 38.7 A 38.7 38.7 0 0 1 425.7 77.4 L 387 77.4" fill="#ffffff"/><rect x="425.7" y="38.7" width="38.7" height="38.7" fill="#fc034e"/><path d="M 425.7 77.4 A 38.7 38.7 0 0 1  464.4 38.7 L 464.4 77.4" fill="#ffffff"/><rect x="464.40000000000003" y="0" width="77.4" height="77.4" fill="#ffffff"/><rect x="464.4" y="0" width="38.7" height="38.7" fill="#fc034e"/><circle cx="483.75" cy="19.35" r="19.35" fill="#7033ff"/><rect x="503.1" y="0" width="38.7" height="38.7" fill="#7033ff"/><rect x="503.1" y="0" width="38.7" height="38.7" fill="#fc034e"/><rect x="464.4" y="38.7" width="38.7" height="38.7" fill="#ffffff"/><circle cx="483.75" cy="58.050000000000004" r="19.35" fill="#fc034e"/><rect x="503.1" y="38.7" width="38.7" height="38.7" fill="#7033ff"/><rect x="503.1" y="38.7" width="38.7" height="38.7" fill="#ffffff"/><rect x="541.8000000000001" y="0" width="77.4" height="77.4" fill="#ffffff"/><rect x="541.8" y="0" width="38.7" height="38.7" fill="#fc034e"/><path d="M 541.8 0 A 38.7 38.7 0 0 1 580.5 38.7 L 541.8 38.7" fill="#ffffff"/><rect x="580.5" y="0" width="38.7" height="38.7" fill="#fc034e"/><path d="M 580.5 38.7 A 38.7 38.7 0 0 1  619.2 0 L 619.2 38.7" fill="#fc034e"/><rect x="541.8" y="38.7" width="38.7" height="38.7" fill="#fc034e"/><path d="M 541.8 77.4 A 38.7 38.7 0 0 0 580.5 38.7 L 541.8 38.7" fill="#7033ff"/><rect x="580.5" y="38.7" width="38.7" height="38.7" fill="#ffffff"/><path d="M 580.5 38.7 A 38.7 38.7 0 0 0 619.2 77.4 L 619.2 38.7" fill="#fc034e"/><rect x="619.2" y="0" width="77.4" height="77.4" fill="#7033ff"/><path d="M 619.2 77.4 A 77.4 77.4 0 0 0 696.6 0 L 619.2 0" fill="#fc034e"/><rect x="696.6" y="0" width="77.4" height="77.4" fill="#ffffff"/><rect x="696.6" y="0" width="38.7" height="38.7" fill="#ffffff"/><path d="M 696.6 38.7 A 38.7 38.7 0 0 1  735.3000000000001 0 L 735.3000000000001 38.7" fill="#7033ff"/><rect x="735.3" y="0" width="38.7" height="38.7" fill="#7033ff"/><path d="M 735.3 0 A 38.7 38.7 0 0 1 774 38.7 L 735.3 38.7" fill="#7033ff"/><rect x="696.6" y="38.7" width="38.7" height="38.7" fill="#ffffff"/><path d="M 696.6 38.7 A 38.7 38.7 0 0 0 735.3000000000001 77.4 L 735.3000000000001 38.7" fill="#fc034e"/><rect x="735.3" y="38.7" width="38.7" height="38.7" fill="#7033ff"/><path d="M 735.3 77.4 A 38.7 38.7 0 0 0 774 38.7 L 735.3 38.7" fill="#ffffff"/><rect x="0" y="77.4" width="77.4" height="77.4" fill="#7033ff"/><polygon points="0,77.4 77.4,77.4 77.4,154.8" fill="#fc034e"/><rect x="77.4" y="77.4" width="77.4" height="77.4" fill="#ffffff"/><polygon points="154.8,77.4 154.8,154.8 77.4,154.8" fill="#ffffff"/><rect x="154.8" y="77.4" width="77.4" height="77.4" fill="#ffffff"/><rect x="154.8" y="77.4" width="77.4" height="77.4" fill="#fc034e"/><rect x="232.20000000000002" y="77.4" width="77.4" height="77.4" fill="#ffffff"/><rect x="232.2" y="77.4" width="38.7" height="38.7" fill="#fc034e"/><polygon points="270.9,77.4 270.9,116.10000000000001 232.2,116.10000000000001" fill="#ffffff"/><rect x="270.9" y="77.4" width="38.7" height="38.7" fill="#ffffff"/><polygon points="270.9,77.4 309.59999999999997,77.4 270.9,116.10000000000001" fill="#ffffff"/><rect x="232.2" y="116.1" width="38.7" height="38.7" fill="#fc034e"/><polygon points="232.2,116.1 270.9,116.1 270.9,154.8" fill="#ffffff"/><rect x="270.9" y="116.1" width="38.7" height="38.7" fill="#7033ff"/><polygon points="270.9,116.1 309.59999999999997,154.8 270.9,154.8" fill="#ffffff"/><rect x="309.6" y="77.4" width="77.4" height="77.4" fill="#ffffff"/><rect x="309.6" y="77.4" width="38.7" height="38.7" fill="#fc034e"/><path d="M 309.6 77.4 A 38.7 38.7 0 0 0 348.3 116.10000000000001 L 348.3 77.4" fill="#ffffff"/><rect x="348.3" y="77.4" width="38.7" height="38.7" fill="#ffffff"/><path d="M 348.3 116.10000000000001 A 38.7 38.7 0 0 0 387 77.4 L 348.3 77.4" fill="#fc034e"/><rect x="309.6" y="116.1" width="38.7" height="38.7" fill="#ffffff"/><path d="M 309.6 154.8 A 38.7 38.7 0 0 1  348.3 116.1 L 348.3 154.8" fill="#ffffff"/><rect x="348.3" y="116.1" width="38.7" height="38.7" fill="#7033ff"/><path d="M 348.3 116.1 A 38.7 38.7 0 0 1 387 154.8 L 348.3 154.8" fill="#7033ff"/><rect x="387" y="77.4" width="77.4" height="77.4" fill="#7033ff"/><path d="M 387 77.4 A 77.4 77.4 0 0 1 464.4 154.8 L 387 154.8" fill="#ffffff"/><rect x="464.4" y="77.4" width="77.4" height="77.4" fill="#ffffff"/><polygon points="464.4,77.4 541.8,77.4 541.8,154.8" fill="#fc034e"/><rect x="541.8" y="77.4" width="77.4" height="77.4" fill="#fc034e"/><rect x="541.8" y="77.4" width="77.4" height="77.4" fill="#ffffff"/><rect x="619.2" y="77.4" width="77.4" height="77.4" fill="#fc034e"/><rect x="619.2" y="77.4" width="77.4" height="77.4" fill="#ffffff"/><rect x="696.6" y="77.4" width="77.4" height="77.4" fill="#ffffff"/><rect x="696.6" y="77.4" width="38.7" height="38.7" fill="#fc034e"/><polygon points="735.3000000000001,77.4 735.3000000000001,116.10000000000001 696.6,116.10000000000001" fill="#ffffff"/><rect x="735.3" y="77.4" width="38.7" height="38.7" fill="#ffffff"/><polygon points="735.3,77.4 774,116.10000000000001 735.3,116.10000000000001" fill="#7033ff"/><rect x="696.6" y="116.1" width="38.7" height="38.7" fill="#ffffff"/><polygon points="696.6,116.1 735.3000000000001,116.1 696.6,154.8" fill="#fc034e"/><rect x="735.3" y="116.1" width="38.7" height="38.7" fill="#7033ff"/><polygon points="735.3,116.1 774,116.1 774,154.8" fill="#7033ff"/><rect x="0" y="154.8" width="77.4" height="77.4" fill="#ffffff"/><rect x="0" y="154.8" width="38.7" height="38.7" fill="#ffffff"/><polygon points="38.7,154.8 38.7,193.5 0,193.5" fill="#fc034e"/><rect x="38.7" y="154.8" width="38.7" height="38.7" fill="#fc034e"/><polygon points="38.7,154.8 77.4,193.5 38.7,193.5" fill="#fc034e"/><rect x="0" y="193.5" width="38.7" height="38.7" fill="#ffffff"/><polygon points="0,193.5 38.7,193.5 38.7,232.2" fill="#7033ff"/><rect x="38.7" y="193.5" width="38.7" height="38.7" fill="#ffffff"/><polygon points="38.7,193.5 77.4,193.5 38.7,232.2" fill="#fc034e"/><rect x="77.4" y="154.8" width="77.4" height="77.4" fill="#7033ff"/><rect x="77.4" y="154.8" width="77.4" height="77.4" fill="#fc034e"/><rect x="154.8" y="154.8" width="77.4" height="77.4" fill="#7033ff"/><path d="M 154.8 232.20000000000002 A 77.4 77.4 0 0 1  232.20000000000002 154.8 L 154.8 232.20000000000002 A 77.4 77.4 0 0 0 232.20000000000002 154.8" fill="#fc034e"/><rect x="232.20000000000002" y="154.8" width="77.4" height="77.4" fill="#ffffff"/><rect x="232.2" y="154.8" width="38.7" height="38.7" fill="#fc034e"/><path d="M 232.2 193.5 A 38.7 38.7 0 0 1  270.9 154.8 L 270.9 193.5" fill="#fc034e"/><rect x="270.9" y="154.8" width="38.7" height="38.7" fill="#fc034e"/><path d="M 270.9 154.8 A 38.7 38.7 0 0 1 309.59999999999997 193.5 L 270.9 193.5" fill="#ffffff"/><rect x="232.2" y="193.5" width="38.7" height="38.7" fill="#ffffff"/><path d="M 232.2 193.5 A 38.7 38.7 0 0 0 270.9 232.2 L 270.9 193.5" fill="#ffffff"/><rect x="270.9" y="193.5" width="38.7" height="38.7" fill="#7033ff"/><path d="M 270.9 232.2 A 38.7 38.7 0 0 0 309.59999999999997 193.5 L 270.9 193.5" fill="#ffffff"/><rect x="309.6" y="154.8" width="77.4" height="77.4" fill="#fc034e"/><polygon points="309.6,154.8 387,154.8 387,232.20000000000002" fill="#fc034e"/><rect x="387" y="154.8" width="77.4" height="77.4" fill="#ffffff"/><path d="M 387 154.8 A 77.4 77.4 0 0 1 464.4 232.20000000000002 L 387 232.20000000000002" fill="#ffffff"/><rect x="464.40000000000003" y="154.8" width="77.4" height="77.4" fill="#ffffff"/><rect x="464.4" y="154.8" width="38.7" height="38.7" fill="#ffffff"/><path d="M 464.4 193.5 A 38.7 38.7 0 0 1 503.09999999999997 154.8 L 503.09999999999997 164.47500000000002 A 29.025000000000002 29.025000000000002 0 0 0 474.075 193.5" fill="#ffffff"/><rect x="503.1" y="154.8" width="38.7" height="38.7" fill="#ffffff"/><path d="M 503.1 154.8 A 38.7 38.7 0 0 1 541.8000000000001 193.5 L 532.125 193.5 A 29.025000000000002 29.025000000000002 0 0 0 503.1 164.47500000000002" fill="#ffffff"/><rect x="464.4" y="193.5" width="38.7" height="38.7" fill="#ffffff"/><path d="M 464.4 193.5 A 38.7 38.7 0 0 0 503.09999999999997 232.2 L 503.09999999999997 222.525 A 29.025000000000002 29.025000000000002 0 0 1 474.075 193.5" fill="#ffffff"/><rect x="503.1" y="193.5" width="38.7" height="38.7" fill="#ffffff"/><path d="M 503.1 232.2 A 38.7 38.7 0 0 0 541.8000000000001 193.5 L 532.125 193.5 A 29.025000000000002 29.025000000000002 0 0 1 503.1 222.525" fill="#fc034e"/><rect x="541.8000000000001" y="154.8" width="77.4" height="77.4" fill="#ffffff"/><rect x="541.8" y="154.8" width="38.7" height="38.7" fill="#ffffff"/><path d="M 541.8 193.5 A 38.7 38.7 0 0 1 580.5 154.8 L 580.5 164.47500000000002 A 29.025000000000002 29.025000000000002 0 0 0 551.4749999999999 193.5" fill="#7033ff"/><rect x="580.5" y="154.8" width="38.7" height="38.7" fill="#fc034e"/><path d="M 580.5 154.8 A 38.7 38.7 0 0 1 619.2 193.5 L 609.525 193.5 A 29.025000000000002 29.025000000000002 0 0 0 580.5 164.47500000000002" fill="#fc034e"/><rect x="541.8" y="193.5" width="38.7" height="38.7" fill="#fc034e"/><path d="M 541.8 193.5 A 38.7 38.7 0 0 0 580.5 232.2 L 580.5 222.525 A 29.025000000000002 29.025000000000002 0 0 1 551.4749999999999 193.5" fill="#fc034e"/><rect x="580.5" y="193.5" width="38.7" height="38.7" fill="#ffffff"/><path d="M 580.5 232.2 A 38.7 38.7 0 0 0 619.2 193.5 L 609.525 193.5 A 29.025000000000002 29.025000000000002 0 0 1 580.5 222.525" fill="#7033ff"/><rect x="619.2" y="154.8" width="77.4" height="77.4" fill="#ffffff"/><rect x="619.2" y="154.8" width="38.7" height="38.7" fill="#7033ff"/><path d="M 619.2 193.5 A 38.7 38.7 0 0 1  657.9000000000001 154.8 L 657.9000000000001 193.5" fill="#ffffff"/><rect x="657.9" y="154.8" width="38.7" height="38.7" fill="#ffffff"/><path d="M 657.9 154.8 A 38.7 38.7 0 0 1 696.6 193.5 L 657.9 193.5" fill="#ffffff"/><rect x="619.2" y="193.5" width="38.7" height="38.7" fill="#7033ff"/><path d="M 619.2 193.5 A 38.7 38.7 0 0 0 657.9000000000001 232.2 L 657.9000000000001 193.5" fill="#fc034e"/><rect x="657.9" y="193.5" width="38.7" height="38.7" fill="#7033ff"/><path d="M 657.9 232.2 A 38.7 38.7 0 0 0 696.6 193.5 L 657.9 193.5" fill="#fc034e"/><rect x="696.6" y="154.8" width="77.4" height="77.4" fill="#7033ff"/><polygon points="696.6,154.8 774,232.20000000000002 696.6,232.20000000000002" fill="#7033ff"/><rect x="0" y="232.2" width="77.4" height="77.4" fill="#fc034e"/><rect x="0" y="232.2" width="77.4" height="77.4" fill="#ffffff"/><rect x="77.4" y="232.20000000000002" width="77.4" height="77.4" fill="#ffffff"/><rect x="77.4" y="232.2" width="38.7" height="38.7" fill="#ffffff"/><path d="M 77.4 232.2 A 38.7 38.7 0 0 0 116.10000000000001 270.9 L 116.10000000000001 232.2" fill="#7033ff"/><rect x="116.1" y="232.2" width="38.7" height="38.7" fill="#fc034e"/><path d="M 116.1 270.9 A 38.7 38.7 0 0 0 154.8 232.2 L 116.1 232.2" fill="#7033ff"/><rect x="77.4" y="270.9" width="38.7" height="38.7" fill="#7033ff"/><path d="M 77.4 309.59999999999997 A 38.7 38.7 0 0 1  116.10000000000001 270.9 L 116.10000000000001 309.59999999999997" fill="#fc034e"/><rect x="116.1" y="270.9" width="38.7" height="38.7" fill="#ffffff"/><path d="M 116.1 270.9 A 38.7 38.7 0 0 1 154.8 309.59999999999997 L 116.1 309.59999999999997" fill="#7033ff"/><rect x="154.8" y="232.2" width="77.4" height="77.4" fill="#7033ff"/><polygon points="154.8,232.2 232.20000000000002,309.6 154.8,309.6" fill="#7033ff"/><rect x="232.20000000000002" y="232.20000000000002" width="77.4" height="77.4" fill="#ffffff"/><rect x="232.2" y="232.2" width="38.7" height="38.7" fill="#ffffff"/><polygon points="270.9,232.2 270.9,270.9 232.2,270.9" fill="#fc034e"/><rect x="270.9" y="232.2" width="38.7" height="38.7" fill="#ffffff"/><polygon points="270.9,232.2 309.59999999999997,232.2 270.9,270.9" fill="#ffffff"/><rect x="232.2" y="270.9" width="38.7" height="38.7" fill="#fc034e"/><polygon points="232.2,270.9 270.9,270.9 270.9,309.59999999999997" fill="#ffffff"/><rect x="270.9" y="270.9" width="38.7" height="38.7" fill="#ffffff"/><polygon points="270.9,270.9 309.59999999999997,309.59999999999997 270.9,309.59999999999997" fill="#fc034e"/><rect x="309.6" y="232.2" width="77.4" height="77.4" fill="#7033ff"/><rect x="309.6" y="232.2" width="77.4" height="77.4" fill="#fc034e"/><rect x="387" y="232.20000000000002" width="77.4" height="77.4" fill="#ffffff"/><rect x="387" y="232.2" width="38.7" height="38.7" fill="#7033ff"/><path d="M 387 270.9 A 38.7 38.7 0 0 1  425.7 232.2 L 425.7 270.9" fill="#7033ff"/><rect x="425.7" y="232.2" width="38.7" height="38.7" fill="#ffffff"/><path d="M 425.7 232.2 A 38.7 38.7 0 0 1 464.4 270.9 L 425.7 270.9" fill="#ffffff"/><rect x="387" y="270.9" width="38.7" height="38.7" fill="#fc034e"/><path d="M 387 270.9 A 38.7 38.7 0 0 0 425.7 309.59999999999997 L 425.7 270.9" fill="#ffffff"/><rect x="425.7" y="270.9" width="38.7" height="38.7" fill="#7033ff"/><path d="M 425.7 309.59999999999997 A 38.7 38.7 0 0 0 464.4 270.9 L 425.7 270.9" fill="#7033ff"/><rect x="464.4" y="232.2" width="77.4" height="77.4" fill="#ffffff"/><polygon points="541.8,232.2 541.8,309.6 464.4,309.6" fill="#7033ff"/><rect x="541.8" y="232.2" width="77.4" height="77.4" fill="#fc034e"/><path d="M 541.8 232.2 A 77.4 77.4 0 0 1  619.1999999999999 309.6 L 541.8 232.2 A 77.4 77.4 0 0 0 619.1999999999999 309.6" fill="#fc034e"/><rect x="619.2" y="232.2" width="77.4" height="77.4" fill="#ffffff"/><polygon points="696.6,232.2 696.6,309.6 619.2,309.6" fill="#fc034e"/><rect x="696.6" y="232.20000000000002" width="77.4" height="77.4" fill="#ffffff"/><rect x="696.6" y="232.2" width="38.7" height="38.7" fill="#7033ff"/><circle cx="715.95" cy="251.54999999999998" r="19.35" fill="#fc034e"/><rect x="735.3" y="232.2" width="38.7" height="38.7" fill="#7033ff"/><rect x="735.3" y="232.2" width="38.7" height="38.7" fill="#7033ff"/><rect x="696.6" y="270.9" width="38.7" height="38.7" fill="#ffffff"/><circle cx="715.95" cy="290.25" r="19.35" fill="#fc034e"/><rect x="735.3" y="270.9" width="38.7" height="38.7" fill="#ffffff"/><rect x="735.3" y="270.9" width="38.7" height="38.7" fill="#fc034e"/><rect x="0" y="309.6" width="77.4" height="77.4" fill="#ffffff"/><rect x="0" y="309.6" width="77.4" height="77.4" fill="#fc034e"/><rect x="77.4" y="309.6" width="77.4" height="77.4" fill="#ffffff"/><rect x="77.4" y="309.6" width="38.7" height="38.7" fill="#fc034e"/><polygon points="116.10000000000001,309.6 116.10000000000001,348.3 77.4,348.3" fill="#fc034e"/><rect x="116.1" y="309.6" width="38.7" height="38.7" fill="#7033ff"/><polygon points="116.1,309.6 154.8,348.3 116.1,348.3" fill="#7033ff"/><rect x="77.4" y="348.3" width="38.7" height="38.7" fill="#7033ff"/><polygon points="77.4,348.3 116.10000000000001,348.3 77.4,387" fill="#7033ff"/><rect x="116.1" y="348.3" width="38.7" height="38.7" fill="#ffffff"/><polygon points="116.1,348.3 154.8,348.3 154.8,387" fill="#7033ff"/><rect x="154.8" y="309.6" width="77.4" height="77.4" fill="#ffffff"/><rect x="154.8" y="309.6" width="77.4" height="77.4" fill="#ffffff"/><rect x="232.2" y="309.6" width="77.4" height="77.4" fill="#ffffff"/><path d="M 232.2 387 A 77.4 77.4 0 0 1  309.6 309.6 L 309.6 387" fill="#7033ff"/><rect x="309.6" y="309.6" width="77.4" height="77.4" fill="#fc034e"/><rect x="309.6" y="309.6" width="77.4" height="77.4" fill="#fc034e"/><rect x="387" y="309.6" width="77.4" height="77.4" fill="#fc034e"/><path d="M 387 387 A 77.4 77.4 0 0 1  464.4 309.6 L 387 387 A 77.4 77.4 0 0 0 464.4 309.6" fill="#7033ff"/><rect x="464.4" y="309.6" width="77.4" height="77.4" fill="#7033ff"/><polygon points="464.4,309.6 541.8,309.6 464.4,387" fill="#fc034e"/><rect x="541.8000000000001" y="309.6" width="77.4" height="77.4" fill="#ffffff"/><rect x="541.8" y="309.6" width="38.7" height="38.7" fill="#fc034e"/><path d="M 541.8 348.3 A 38.7 38.7 0 0 1 580.5 309.6 L 580.5 319.27500000000003 A 29.025000000000002 29.025000000000002 0 0 0 551.4749999999999 348.3" fill="#7033ff"/><rect x="580.5" y="309.6" width="38.7" height="38.7" fill="#7033ff"/><path d="M 580.5 309.6 A 38.7 38.7 0 0 1 619.2 348.3 L 609.525 348.3 A 29.025000000000002 29.025000000000002 0 0 0 580.5 319.27500000000003" fill="#ffffff"/><rect x="541.8" y="348.3" width="38.7" height="38.7" fill="#fc034e"/><path d="M 541.8 348.3 A 38.7 38.7 0 0 0 580.5 387 L 580.5 377.325 A 29.025000000000002 29.025000000000002 0 0 1 551.4749999999999 348.3" fill="#ffffff"/><rect x="580.5" y="348.3" width="38.7" height="38.7" fill="#7033ff"/><path d="M 580.5 387 A 38.7 38.7 0 0 0 619.2 348.3 L 609.525 348.3 A 29.025000000000002 29.025000000000002 0 0 1 580.5 377.325" fill="#ffffff"/><rect x="619.2" y="309.6" width="77.4" height="77.4" fill="#ffffff"/><polygon points="696.6,309.6 696.6,387 619.2,387" fill="#fc034e"/><rect x="696.6" y="309.6" width="77.4" height="77.4" fill="#ffffff"/><rect x="696.6" y="309.6" width="38.7" height="38.7" fill="#fc034e"/><path d="M 696.6 348.3 A 38.7 38.7 0 0 0 735.3000000000001 309.6 L 696.6 309.6" fill="#fc034e"/><rect x="735.3" y="309.6" width="38.7" height="38.7" fill="#fc034e"/><path d="M 735.3 309.6 A 38.7 38.7 0 0 0 774 348.3 L 774 309.6" fill="#7033ff"/><rect x="696.6" y="348.3" width="38.7" height="38.7" fill="#7033ff"/><path d="M 696.6 348.3 A 38.7 38.7 0 0 1 735.3000000000001 387 L 696.6 387" fill="#7033ff"/><rect x="735.3" y="348.3" width="38.7" height="38.7" fill="#fc034e"/><path d="M 735.3 387 A 38.7 38.7 0 0 1  774 348.3 L 774 387" fill="#ffffff"/></g></svg>