<?xml version="1.0" standalone="no"?><svg xmlns:xlink="http://www.w3.org/1999/xlink" xmlns="http://www.w3.org/2000/svg" viewBox="0 0 2000 1000" preserveAspectRatio="xMaxYMax slice"><g transform="scale(2.5839793281653747)"><rect x="0" y="0" width="774" height="387" fill="#ffffff"/><rect x="0" y="0" width="77.4" height="77.4" fill="#ffffff"/><rect x="0" y="0" width="38.7" height="38.7" fill="#000000"/><polygon points="38.7,0 38.7,38.7 0,38.7" fill="#7033ff"/><rect x="38.7" y="0" width="38.7" height="38.7" fill="#7033ff"/><polygon points="38.7,0 77.4,38.7 38.7,38.7" fill="#000000"/><rect x="0" y="38.7" width="38.7" height="38.7" fill="#7033ff"/><polygon points="0,38.7 38.7,38.7 38.7,77.4" fill="#7033ff"/><rect x="38.7" y="38.7" width="38.7" height="38.7" fill="#000000"/><polygon points="38.7,38.7 77.4,38.7 38.7,77.4" fill="#000000"/><rect x="77.4" y="0" width="77.4" height="77.4" fill="#000000"/><rect x="77.4" y="0" width="77.4" height="77.4" fill="#7033ff"/><rect x="154.8" y="0" width="77.4" height="77.4" fill="#ffffff"/><rect x="154.8" y="0" width="38.7" height="38.7" fill="#7033ff"/><polygon points="193.5,0 193.5,38.7 154.8,38.7" fill="#7033ff"/><rect x="193.5" y="0" width="38.7" height="38.7" fill="#7033ff"/><polygon points="193.5,0 232.2,38.7 193.5,38.7" fill="#000000"/><rect x="154.8" y="38.7" width="38.7" height="38.7" fill="#7033ff"/><polygon points="154.8,38.7 193.5,38.7 193.5,77.4" fill="#7033ff"/><rect x="193.5" y="38.7" width="38.7" height="38.7" fill="#7033ff"/><polygon points="193.5,38.7 232.2,38.7 193.5,77.4" fill="#7033ff"/><rect x="232.2" y="0" width="77.4" height="77.4" fill="#000000"/><path d="M 232.2 77.4 A 77.4 77.4 0 0 1  309.6 0 L 232.2 77.4 A 77.4 77.4 0 0 0 309.6 0" fill="#000000"/><rect x="309.6" y="0" width="77.4" height="77.4" fill="#ffffff"/><rect x="309.6" y="0" width="38.7" height="38.7" fill="#000000"/><path d="M 309.6 0 A 38.7 38.7 0 0 0 348.3 38.7 L 348.3 0" fill="#000000"/><rect x="348.3" y="0" width="38.7" height="38.7" fill="#000000"/><path d="M 348.3 38.7 A 38.7 38.7 0 0 0 387 0 L 348.3 0" fill="#7033ff"/><rect x="309.6" y="38.7" width="38.7" height="38.7" fill="#000000"/><path d="M 309.6 77.4 A 38.7 38.7 0 0 1  348.3 38.7 L 348.3 77.4" fill="#7033ff"/><rect x="348.3" y="38.7" width="38.7" height="38.7" fill="#000000"/><path d="M 348.3 38.7 A 38.7 38.7 0 0 1 387 77.4 L 348.3 77.4" fill="#7033ff"/><rect x="387" y="0" width="77.4" height="77.4" fill="#ffffff"/><rect x="387" y="0" width="38.7" height="38.7" fill="#7033ff"/><polygon points="425.7,0 425.7,38.7 387,38.7" fill="#000000"/><rect x="425.7" y="0" width="38.7" height="38.7" fill="#000000"/><polygon points="425.7,0 464.4,38.7 425.7,38.7" fill="#000000"/><rect x="387" y="38.7" width="38.7" height="38.7" fill="#000000"/><polygon points="387,38.7 425.7,38.7 425.7,77.4" fill="#000000"/><rect x="425.7" y="38.7" width="38.7" height="38.7" fill="#7033ff"/><polygon points="425.7,38.7 464.4,38.7 425.7,77.4" fill="#000000"/><rect x="464.40000000000003" y="0" width="77.4" height="77.4" fill="#ffffff"/><rect x="464.4" y="0" width="38.7" height="38.7" fill="#7033ff"/><polygon points="503.09999999999997,0 503.09999999999997,38.7 464.4,38.7" fill="#000000"/><rect x="503.1" y="0" width="38.7" height="38.7" fill="#000000"/><polygon points="503.1,0 541.8000000000001,38.7 503.1,38.7" fill="#7033ff"/><rect x="464.4" y="38.7" width="38.7" height="38.7" fill="#000000"/><polygon points="464.4,38.7 503.09999999999997,38.7 503.09999999999997,77.4" fill="#7033ff"/><rect x="503.1" y="38.7" width="38.7" height="38.7" fill="#000000"/><polygon points="503.1,38.7 541.8000000000001,38.7 503.1,77.4" fill="#000000"/><rect x="541.8" y="0" width="77.4" height="77.4" fill="#7033ff"/><rect x="541.8" y="0" width="77.4" height="77.4" fill="#000000"/><rect x="619.2" y="0" width="77.4" height="77.4" fill="#7033ff"/><polygon points="619.2,0 696.6,0 696.6,77.4" fill="#000000"/><rect x="696.6" y="0" width="77.4" height="77.4" fill="#ffffff"/><rect x="696.6" y="0" width="38.7" height="38.7" fill="#000000"/><polygon points="735.3000000000001,0 735.3000000000001,38.7 696.6,38.7" fill="#7033ff"/><rect x="735.3" y="0" width="38.7" height="38.7" fill="#000000"/><polygon points="735.3,0 774,38.7 735.3,38.7" fill="#7033ff"/><rect x="696.6" y="38.7" width="38.7" height="38.7" fill="#7033ff"/><polygon points="696.6,38.7 735.3000000000001,38.7 735.3000000000001,77.4" fill="#000000"/><rect x="735.3" y="38.7" width="38.7" height="38.7" fill="#7033ff"/><polygon points="735.3,38.7 774,38.7 735.3,77.4" fill="#000000"/><rect x="0" y="77.4" width="77.4" height="77.4" fill="#ffffff"/><rect x="0" y="77.4" width="38.7" height="38.7" fill="#7033ff"/><path d="M 0 116.10000000000001 A 38.7 38.7 0 0 0 38.7 77.4 L 0 77.4" fill="#000000"/><rect x="38.7" y="77.4" width="38.7" height="38.7" fill="#000000"/><path d="M 38.7 77.4 A 38.7 38.7 0 0 0 77.4 116.10000000000001 L 77.4 77.4" fill="#000000"/><rect x="0" y="116.1" width="38.7" height="38.7" fill="#7033ff"/><path d="M 0 116.1 A 38.7 38.7 0 0 1 38.7 154.8 L 0 154.8" fill="#000000"/><rect x="38.7" y="116.1" width="38.7" height="38.7" fill="#000000"/><path d="M 38.7 154.8 A 38.7 38.7 0 0 1  77.4 116.1 L 77.4 154.8" fill="#000000"/><rect x="77.4" y="77.4" width="77.4" height="77.4" fill="#ffffff"/><rect x="77.4" y="77.4" width="38.7" height="38.7" fill="#000000"/><polygon points="116.10000000000001,77.4 116.10000000000001,116.10000000000001 77.4,116.10000000000001" fill="#7033ff"/><rect x="116.1" y="77.4" width="38.7" height="38.7" fill="#7033ff"/><polygon points="116.1,77.4 154.8,77.4 116.1,116.10000000000001" fill="#7033ff"/><rect x="77.4" y="116.1" width="38.7" height="38.7" fill="#7033ff"/><polygon points="77.4,116.1 116.10000000000001,116.1 116.10000000000001,154.8" fill="#7033ff"/><rect x="116.1" y="116.1" width="38.7" height="38.7" fill="#7033ff"/><polygon points="116.1,116.1 154.8,154.8 116.1,154.8" fill="#000000"/><rect x="154.8" y="77.4" width="77.4" height="77.4" fill="#ffffff"/><rect x="154.8" y="77.4" width="38.7" height="38.7" fill="#000000"/><path d="M 154.8 116.10000000000001 A 38.7 38.7 0 0 0 193.5 77.4 L 154.8 77.4" fill="#000000"/><rect x="193.5" y="77.4" width="38.7" height="38.7" fill="#000000"/><path d="M 193.5 77.4 A 38.7 38.7 0 0 0 232.2 116.10000000000001 L 232.2 77.4" fill="#7033ff"/><rect x="154.8" y="116.1" width="38.7" height="38.7" fill="#7033ff"/><path d="M 154.8 116.1 A 38.7 38.7 0 0 1 193.5 154.8 L 154.8 154.8" fill="#7033ff"/><rect x="193.5" y="116.1" width="38.7" height="38.7" fill="#000000"/><path d="M 193.5 154.8 A 38.7 38.7 0 0 1  232.2 116.1 L 232.2 154.8" fill="#000000"/><rect x="232.2" y="77.4" width="77.4" height="77.4" fill="#000000"/><polygon points="232.2,77.4 309.6,154.8 232.2,154.8" fill="#000000"/><rect x="309.6" y="77.4" width="77.4" height="77.4" fill="#ffffff"/><rect x="309.6" y="77.4" width="38.7" height="38.7" fill="#7033ff"/><path d="M 309.6 77.4 A 38.7 38.7 0 0 0 348.3 116.10000000000001 L 348.3 77.4" fill="#000000"/><rect x="348.3" y="77.4" width="38.7" height="38.7" fill="#7033ff"/><path d="M 348.3 116.10000000000001 A 38.7 38.7 0 0 0 387 77.4 L 348.3 77.4" fill="#000000"/><rect x="309.6" y="116.1" width="38.7" height="38.7" fill="#7033ff"/><path d="M 309.6 154.8 A 38.7 38.7 0 0 1  348.3 116.1 L 348.3 154.8" fill="#7033ff"/><rect x="348.3" y="116.1" width="38.7" height="38.7" fill="#7033ff"/><path d="M 348.3 116.1 A 38.7 38.7 0 0 1 387 154.8 L 348.3 154.8" fill="#7033ff"/><rect x="387" y="77.4" width="77.4" height="77.4" fill="#000000"/><rect x="387" y="77.4" width="77.4" height="77.4" fill="#7033ff"/><rect x="464.40000000000003" y="77.4" width="77.4" height="77.4" fill="#ffffff"/><rect x="464.4" y="77.4" width="38.7" height="38.7" fill="#000000"/><polygon points="503.09999999999997,77.4 503.09999999999997,116.10000000000001 464.4,116.10000000000001" fill="#7033ff"/><rect x="503.1" y="77.4" width="38.7" height="38.7" fill="#7033ff"/><polygon points="503.1,77.4 541.8000000000001,77.4 503.1,116.10000000000001" fill="#7033ff"/><rect x="464.4" y="116.1" width="38.7" height="38.7" fill="#7033ff"/><polygon points="464.4,116.1 503.09999999999997,116.1 503.09999999999997,154.8" fill="#000000"/><rect x="503.1" y="116.1" width="38.7" height="38.7" fill="#000000"/><polygon points="503.1,116.1 541.8000000000001,154.8 503.1,154.8" fill="#7033ff"/><rect x="541.8" y="77.4" width="77.4" height="77.4" fill="#000000"/><rect x="541.8" y="77.4" width="77.4" height="77.4" fill="#7033ff"/><rect x="619.2" y="77.4" width="77.4" height="77.4" fill="#ffffff"/><rect x="619.2" y="77.4" width="38.7" height="38.7" fill="#000000"/><polygon points="657.9000000000001,77.4 657.9000000000001,116.10000000000001 619.2,116.10000000000001" fill="#000000"/><rect x="657.9" y="77.4" width="38.7" height="38.7" fill="#7033ff"/><polygon points="657.9,77.4 696.6,77.4 657.9,116.10000000000001" fill="#7033ff"/><rect x="619.2" y="116.1" width="38.7" height="38.7" fill="#7033ff"/><polygon points="619.2,116.1 657.9000000000001,116.1 657.9000000000001,154.8" fill="#000000"/><rect x="657.9" y="116.1" width="38.7" height="38.7" fill="#7033ff"/><polygon points="657.9,116.1 696.6,154.8 657.9,154.8" fill="#7033ff"/><rect x="696.6" y="77.4" width="77.4" height="77.4" fill="#000000"/><rect x="696.6" y="77.4" width="77.4" height="77.4" fill="#000000"/><rect x="0" y="154.8" width="77.4" height="77.4" fill="#000000"/><polygon points="77.4,154.8 77.4,232.20000000000002 0,232.20000000000002" fill="#7033ff"/><rect x="77.4" y="154.8" width="77.4" height="77.4" fill="#7033ff"/><polygon points="154.8,154.8 154.8,232.20000000000002 77.4,232.20000000000002" fill="#7033ff"/><rect x="154.8" y="154.8" width="77.4" height="77.4" fill="#000000"/><polygon points="154.8,154.8 232.20000000000002,232.20000000000002 154.8,232.20000000000002" fill="#7033ff"/><rect x="232.2" y="154.8" width="77.4" height="77.4" fill="#000000"/><rect x="232.2" y="154.8" width="77.4" height="77.4" fill="#000000"/><rect x="309.6" y="154.8" width="77.4" height="77.4" fill="#ffffff"/><rect x="309.6" y="154.8" width="38.7" height="38.7" fill="#000000"/><polygon points="348.3,154.8 348.3,193.5 309.6,193.5" fill="#7033ff"/><rect x="348.3" y="154.8" width="38.7" height="38.7" fill="#000000"/><polygon points="348.3,154.8 387,193.5 348.3,193.5" fill="#000000"/><rect x="309.6" y="193.5" width="38.7" height="38.7" fill="#7033ff"/><polygon points="309.6,193.5 348.3,193.5 348.3,232.2" fill="#7033ff"/><rect x="348.3" y="193.5" width="38.7" height="38.7" fill="#000000"/><polygon points="348.3,193.5 387,193.5 348.3,232.2" fill="#000000"/><rect x="387" y="154.8" width="77.4" height="77.4" fill="#ffffff"/><rect x="387" y="154.8" width="38.7" height="38.7" fill="#7033ff"/><path d="M 387 193.5 A 38.7 38.7 0 0 1  425.7 154.8 L 425.7 193.5" fill="#7033ff"/><rect x="425.7" y="154.8" width="38.7" height="38.7" fill="#7033ff"/><path d="M 425.7 154.8 A 38.7 38.7 0 0 1 464.4 193.5 L 425.7 193.5" fill="#7033ff"/><rect x="387" y="193.5" width="38.7" height="38.7" fill="#000000"/><path d="M 387 193.5 A 38.7 38.7 0 0 0 425.7 232.2 L 425.7 193.5" fill="#7033ff"/><rect x="425.7" y="193.5" width="38.7" height="38.7" fill="#7033ff"/><path d="M 425.7 232.2 A 38.7 38.7 0 0 0 464.4 193.5 L 425.7 193.5" fill="#000000"/><rect x="464.40000000000003" y="154.8" width="77.4" height="77.4" fill="#ffffff"/><rect x="464.4" y="154.8" width="38.7" height="38.7" fill="#000000"/><path d="M 464.4 193.5 A 38.7 38.7 0 0 1  503.09999999999997 154.8 L 503.09999999999997 193.5" fill="#000000"/><rect x="503.1" y="154.8" width="38.7" height="38.7" fill="#000000"/><path d="M 503.1 154.8 A 38.7 38.7 0 0 1 541.8000000000001 193.5 L 503.1 193.5" fill="#000000"/><rect x="464.4" y="193.5" width="38.7" height="38.7" fill="#7033ff"/><path d="M 464.4 193.5 A 38.7 38.7 0 0 0 503.09999999999997 232.2 L 503.09999999999997 193.5" fill="#000000"/><rect x="503.1" y="193.5" width="38.7" height="38.7" fill="#000000"/><path d="M 503.1 232.2 A 38.7 38.7 0 0 0 541.8000000000001 193.5 L 503.1 193.5" fill="#7033ff"/><rect x="541.8" y="154.8" width="77.4" height="77.4" fill="#7033ff"/><polygon points="541.8,154.8 619.1999999999999,154.8 619.1999999999999,232.20000000000002" fill="#000000"/><rect x="619.2" y="154.8" width="77.4" height="77.4" fill="#7033ff"/><polygon points="696.6,154.8 696.6,232.20000000000002 619.2,232.20000000000002" fill="#000000"/><rect x="696.6" y="154.8" width="77.4" height="77.4" fill="#000000"/><path d="M 696.6 154.8 A 77.4 77.4 0 0 1 774 232.20000000000002 L 696.6 232.20000000000002" fill="#000000"/><rect x="0" y="232.20000000000002" width="77.4" height="77.4" fill="#ffffff"/><rect x="0" y="232.2" width="38.7" height="38.7" fill="#000000"/><path d="M 0 270.9 A 38.7 38.7 0 0 1  38.7 232.2 L 38.7 270.9" fill="#7033ff"/><rect x="38.7" y="232.2" width="38.7" height="38.7" fill="#7033ff"/><path d="M 38.7 232.2 A 38.7 38.7 0 0 1 77.4 270.9 L 38.7 270.9" fill="#7033ff"/><rect x="0" y="270.9" width="38.7" height="38.7" fill="#7033ff"/><path d="M 0 270.9 A 38.7 38.7 0 0 0 38.7 309.59999999999997 L 38.7 270.9" fill="#000000"/><rect x="38.7" y="270.9" width="38.7" height="38.7" fill="#000000"/><path d="M 38.7 309.59999999999997 A 38.7 38.7 0 0 0 77.4 270.9 L 38.7 270.9" fill="#000000"/><rect x="77.4" y="232.2" width="77.4" height="77.4" fill="#000000"/><rect x="77.4" y="232.2" width="77.4" height="77.4" fill="#000000"/><rect x="154.8" y="232.20000000000002" width="77.4" height="77.4" fill="#ffffff"/><rect x="154.8" y="232.2" width="38.7" height="38.7" fill="#000000"/><path d="M 154.8 232.2 A 38.7 38.7 0 0 0 193.5 270.9 L 193.5 232.2" fill="#000000"/><rect x="193.5" y="232.2" width="38.7" height="38.7" fill="#7033ff"/><path d="M 193.5 270.9 A 38.7 38.7 0 0 0 232.2 232.2 L 193.5 232.2" fill="#7033ff"/><rect x="154.8" y="270.9" width="38.7" height="38.7" fill="#000000"/><path d="M 154.8 309.59999999999997 A 38.7 38.7 0 0 1  193.5 270.9 L 193.5 309.59999999999997" fill="#000000"/><rect x="193.5" y="270.9" width="38.7" height="38.7" fill="#7033ff"/><path d="M 193.5 270.9 A 38.7 38.7 0 0 1 232.2 309.59999999999997 L 193.5 309.59999999999997" fill="#000000"/><rect x="232.2" y="232.2" width="77.4" height="77.4" fill="#000000"/><polygon points="232.2,232.2 309.6,309.6 232.2,309.6" fill="#7033ff"/><rect x="309.6" y="232.2" width="77.4" height="77.4" fill="#000000"/><path d="M 309.6 309.6 A 77.4 77.4 0 0 1  387 232.2 L 309.6 309.6 A 77.4 77.4 0 0 0 387 232.2" fill="#000000"/><rect x="387" y="232.2" width="77.4" height="77.4" fill="#7033ff"/><path d="M 387 309.6 A 77.4 77.4 0 0 1  464.4 232.2 L 464.4 309.6" fill="#000000"/><rect x="464.40000000000003" y="232.20000000000002" width="77.4" height="77.4" fill="#ffffff"/><rect x="464.4" y="232.2" width="38.7" height="38.7" fill="#000000"/><path d="M 464.4 232.2 A 38.7 38.7 0 0 0 503.09999999999997 270.9 L 503.09999999999997 232.2" fill="#7033ff"/><rect x="503.1" y="232.2" width="38.7" height="38.7" fill="#7033ff"/><path d="M 503.1 270.9 A 38.7 38.7 0 0 0 541.8000000000001 232.2 L 503.1 232.2" fill="#7033ff"/><rect x="464.4" y="270.9" width="38.7" height="38.7" fill="#000000"/><path d="M 464.4 309.59999999999997 A 38.7 38.7 0 0 1  503.09999999999997 270.9 L 503.09999999999997 309.59999999999997" fill="#7033ff"/><rect x="503.1" y="270.9" width="38.7" height="38.7" fill="#7033ff"/><path d="M 503.1 270.9 A 38.7 38.7 0 0 1 541.8000000000001 309.59999999999997 L 503.1 309.59999999999997" fill="#7033ff"/><rect x="541.8000000000001" y="232.20000000000002" width="77.4" height="77.4" fill="#ffffff"/><rect x="541.8" y="232.2" width="38.7" height="38.7" fill="#000000"/><path d="M 541.8 232.2 A 38.7 38.7 0 0 1 580.5 270.9 L 541.8 270.9" fill="#7033ff"/><rect x="580.5" y="232.2" width="38.7" height="38.7" fill="#000000"/><path d="M 580.5 270.9 A 38.7 38.7 0 0 1  619.2 232.2 L 619.2 270.9" fill="#7033ff"/><rect x="541.8" y="270.9" width="38.7" height="38.7" fill="#7033ff"/><path d="M 541.8 309.59999999999997 A 38.7 38.7 0 0 0 580.5 270.9 L 541.8 270.9" fill="#000000"/><rect x="580.5" y="270.9" width="38.7" height="38.7" fill="#000000"/><path d="M 580.5 270.9 A 38.7 38.7 0 0 0 619.2 309.59999999999997 L 619.2 270.9" fill="#000000"/><rect x="619.2" y="232.2" width="77.4" height="77.4" fill="#7033ff"/><rect x="619.2" y="232.2" width="77.4" height="77.4" fill="#7033ff"/><rect x="696.6" y="232.20000000000002" width="77.4" height="77.4" fill="#ffffff"/><rect x="696.6" y="232.2" width="38.7" height="38.7" fill="#7033ff"/><path d="M 696.6 270.9 A 38.7 38.7 0 0 0 735.3000000000001 232.2 L 696.6 232.2" fill="#000000"/><rect x="735.3" y="232.2" width="38.7" height="38.7" fill="#000000"/><path d="M 735.3 232.2 A 38.7 38.7 0 0 0 774 270.9 L 774 232.2" fill="#7033ff"/><rect x="696.6" y="270.9" width="38.7" height="38.7" fill="#7033ff"/><path d="M 696.6 270.9 A 38.7 38.7 0 0 1 735.3000000000001 309.59999999999997 L 696.6 309.59999999999997" fill="#7033ff"/><rect x="735.3" y="270.9" width="38.7" height="38.7" fill="#000000"/><path d="M 735.3 309.59999999999997 A 38.7 38.7 0 0 1  774 270.9 L 774 309.59999999999997" fill="#000000"/><rect x="0" y="309.6" width="77.4" height="77.4" fill="#ffffff"/><rect x="0" y="309.6" width="38.7" height="38.7" fill="#000000"/><polygon points="38.7,309.6 38.7,348.3 0,348.3" fill="#7033ff"/><rect x="38.7" y="309.6" width="38.7" height="38.7" fill="#7033ff"/><polygon points="38.7,309.6 77.4,348.3 38.7,348.3" fill="#7033ff"/><rect x="0" y="348.3" width="38.7" height="38.7" fill="#000000"/><polygon points="0,348.3 38.7,348.3 38.7,387" fill="#7033ff"/><rect x="38.7" y="348.3" width="38.7" height="38.7" fill="#7033ff"/><polygon points="38.7,348.3 77.4,348.3 38.7,387" fill="#7033ff"/><rect x="77.4" y="309.6" width="77.4" height="77.4" fill="#000000"/><rect x="77.4" y="309.6" width="77.4" height="77.4" fill="#7033ff"/><rect x="154.8" y="309.6" width="77.4" height="77.4" fill="#000000"/><rect x="154.8" y="309.6" width="77.4" height="77.4" fill="#000000"/><rect x="232.20000000000002" y="309.6" width="77.4" height="77.4" fill="#ffffff"/><rect x="232.2" y="309.6" width="38.7" height="38.7" fill="#7033ff"/><path d="M 232.2 309.6 A 38.7 38.7 0 0 0 270.9 348.3 L 270.9 309.6" fill="#000000"/><rect x="270.9" y="309.6" width="38.7" height="38.7" fill="#7033ff"/><path d="M 270.9 348.3 A 38.7 38.7 0 0 0 309.59999999999997 309.6 L 270.9 309.6" fill="#000000"/><rect x="232.2" y="348.3" width="38.7" height="38.7" fill="#7033ff"/><path d="M 232.2 387 A 38.7 38.7 0 0 1  270.9 348.3 L 270.9 387" fill="#7033ff"/><rect x="270.9" y="348.3" width="38.7" height="38.7" fill="#000000"/><path d="M 270.9 348.3 A 38.7 38.7 0 0 1 309.59999999999997 387 L 270.9 387" fill="#000000"/><rect x="309.6" y="309.6" width="77.4" height="77.4" fill="#000000"/><path d="M 309.6 309.6 A 77.4 77.4 0 0 0 387 387 L 387 309.6" fill="#7033ff"/><rect x="387" y="309.6" width="77.4" height="77.4" fill="#000000"/><polygon points="387,309.6 464.4,387 387,387" fill="#7033ff"/><rect x="464.4" y="309.6" width="77.4" height="77.4" fill="#7033ff"/><path d="M 464.4 309.6 A 77.4 77.4 0 0 0 541.8 387 L 541.8 309.6" fill="#7033ff"/><rect x="541.8000000000001" y="309.6" width="77.4" height="77.4" fill="#ffffff"/><rect x="541.8" y="309.6" width="38.7" height="38.7" fill="#7033ff"/><path d="M 541.8 309.6 A 38.7 38.7 0 0 0 580.5 348.3 L 580.5 309.6" fill="#7033ff"/><rect x="580.5" y="309.6" width="38.7" height="38.7" fill="#000000"/><path d="M 580.5 348.3 A 38.7 38.7 0 0 0 619.2 309.6 L 580.5 309.6" fill="#7033ff"/><rect x="541.8" y="348.3" width="38.7" height="38.7" fill="#000000"/><path d="M 541.8 387 A 38.7 38.7 0 0 1  580.5 348.3 L 580.5 387" fill="#000000"/><rect x="580.5" y="348.3" width="38.7" height="38.7" fill="#7033ff"/><path d="M 580.5 348.3 A 38.7 38.7 0 0 1 619.2 387 L 580.5 387" fill="#000000"/><rect x="619.2" y="309.6" width="77.4" height="77.4" fill="#ffffff"/><rect x="619.2" y="309.6" width="38.7" height="38.7" fill="#7033ff"/><polygon points="657.9000000000001,309.6 657.9000000000001,348.3 619.2,348.3" fill="#000000"/><rect x="657.9" y="309.6" width="38.7" height="38.7" fill="#7033ff"/><polygon points="657.9,309.6 696.6,348.3 657.9,348.3" fill="#000000"/><rect x="619.2" y="348.3" width="38.7" height="38.7" fill="#7033ff"/><polygon points="619.2,348.3 657.9000000000001,348.3 657.9000000000001,387" fill="#7033ff"/><rect x="657.9" y="348.3" width="38.7" height="38.7" fill="#000000"/><polygon points="657.9,348.3 696.6,348.3 657.9,387" fill="#000000"/><rect x="696.6" y="309.6" width="77.4" height="77.4" fill="#7033ff"/><polygon points="696.6,309.6 774,309.6 696.6,387" fill="#7033ff"/></g></svg>