<?xml version="1.0" standalone="no"?><svg xmlns:xlink="http://www.w3.org/1999/xlink" xmlns="http://www.w3.org/2000/svg" viewBox="0 0 2000 1272.7311593857346" preserveAspectRatio="xMaxYMax slice"><g transform="scale(3.288711006164689)"><rect x="0" y="0" width="608.1428571428571" height="387" fill="#ffffff"/><rect x="0" y="0" width="55.29" height="55.29" fill="#ff7596"/><polygon points="55.29,0 55.29,55.29 0,55.29" fill="#4665e7"/><rect x="55.29" y="0" width="55.29" height="55.29" fill="#ffaabe"/><polygon points="55.29,0 110.58,0 55.29,55.29" fill="#ff4b76"/><rect x="110.57" y="0" width="55.29" height="55.29" fill="#ff3c6a"/><rect x="110.57" y="0" width="55.29" height="55.29" fill="#d9dffa"/><rect x="165.86" y="0" width="55.29" height="55.29" fill="#9cadf2"/><polygon points="165.86,0 221.15,55.29 165.86,55.29" fill="#ff688c"/><rect x="221.14" y="0" width="55.29" height="55.29" fill="#5b77ea"/><polygon points="221.14,0 276.43,0 221.14,55.29" fill="#cfd7f9"/><rect x="276.43" y="0" width="55.29" height="55.29" fill="#fff0f4"/><polygon points="276.43,0 331.72,55.29 276.43,55.29" fill="#b0bef5"/><rect x="331.71" y="0" width="55.29" height="55.29" fill="#c3cdf7"/><path d="M 331.71 55.29 A 55.29 55.29 0 0 1  387 0 L 331.71 55.29 A 55.29 55.29 0 0 0 387 0" fill="#d0d8f9"/><rect x="387" y="0" width="55.29" height="55.29" fill="#90a3f1"/><path d="M 387 0 A 55.29 55.29 0 0 1  442.29 55.29 L 387 0 A 55.29 55.29 0 0 0 442.29 55.29" fill="#ffa0b7"/><rect x="442.29" y="0" width="55.29" height="55.29" fill="#ffeaef"/><rect x="442.29" y="0" width="55.29" height="55.29" fill="#ffd5df"/><rect x="497.57" y="0" width="55.29" height="55.29" fill="#e9ecfc"/><rect x="497.57" y="0" width="55.29" height="55.29" fill="#9daef2"/><rect x="552.86" y="0" width="55.29" height="55.29" fill="#2247e2"/><polygon points="552.86,0 608.15,55.29 552.86,55.29" fill="#ffb4c6"/><rect x="0" y="55.29" width="55.29" height="55.29" fill="#6c84ec"/><polygon points="0,55.29 55.29,55.29 0,110.58" fill="#ffb9c9"/><rect x="55.29" y="55.29" width="55.29" height="55.29" fill="#ffcad6"/><path d="M 55.29 55.29 A 55.29 55.29 0 0 1  110.58 110.58 L 55.29 55.29 A 55.29 55.29 0 0 0 110.58 110.58" fill="#ffeaef"/><rect x="110.57" y="55.29" width="55.29" height="55.29" fill="#ff89a5"/><polygon points="165.85999999999999,55.29 165.85999999999999,110.58 110.57,110.58" fill="#fff3f6"/><rect x="165.86" y="55.29" width="55.29" height="55.29" fill="#1940e1"/><polygon points="165.86,55.29 221.15,55.29 221.15,110.58" fill="#4867e7"/><rect x="221.14" y="55.29" width="55.29" height="55.29" fill="#5270e9"/><path d="M 221.14 110.58 A 55.29 55.29 0 0 1  276.43 55.29 L 221.14 110.58 A 55.29 55.29 0 0 0 276.43 55.29" fill="#ff3766"/><rect x="276.43" y="55.29" width="55.29" height="55.29" fill="#ffadc1"/><path d="M 276.43 55.29 A 55.29 55.29 0 0 1  331.72 110.58 L 276.43 55.29 A 55.29 55.29 0 0 0 331.72 110.58" fill="#ff3968"/><rect x="331.71" y="55.29" width="55.29" height="55.29" fill="#c5cef7"/><polygon points="331.71,55.29 387,55.29 387,110.58" fill="#264ae3"/><rect x="387" y="55.29" width="55.29" height="55.29" fill="#ff99b1"/><polygon points="387,55.29 442.29,55.29 387,110.58" fill="#ffabbf"/><rect x="442.29" y="55.29" width="55.29" height="55.29" fill="#ff7c9b"/><path d="M 442.29 110.58 A 55.29 55.29 0 0 1  497.58000000000004 55.29 L 497.58000000000004 110.58" fill="#617ceb"/><rect x="497.57" y="55.29" width="55.29" height="55.29" fill="#feffff"/><path d="M 497.57 55.29 A 55.29 55.29 0 0 1  552.86 110.58 L 497.57 55.29 A 55.29 55.29 0 0 0 552.86 110.58" fill="#ffeff3"/><rect x="552.86" y="55.29" width="55.29" height="55.29" fill="#fff1f4"/><rect x="552.86" y="55.29" width="55.29" height="55.29" fill="#c6d0f8"/><rect x="0" y="110.57" width="55.29" height="55.29" fill="#ffe9ee"/><polygon points="0,110.57 55.29,110.57 55.29,165.85999999999999" fill="#dbe1fa"/><rect x="55.29" y="110.57" width="55.29" height="55.29" fill="#7a91ee"/><polygon points="55.29,110.57 110.58,110.57 55.29,165.85999999999999" fill="#8095ee"/><rect x="110.57" y="110.57" width="55.29" height="55.29" fill="#fffbfc"/><path d="M 110.57 165.85999999999999 A 55.29 55.29 0 0 1  165.85999999999999 110.57 L 110.57 165.85999999999999 A 55.29 55.29 0 0 0 165.85999999999999 110.57" fill="#ffaec1"/><rect x="165.86" y="110.57" width="55.29" height="55.29" fill="#ffa0b6"/><rect x="165.86" y="110.57" width="55.29" height="55.29" fill="#ffe6ec"/><rect x="221.14" y="110.57" width="55.29" height="55.29" fill="#ffa3b9"/><polygon points="221.14,110.57 276.43,165.85999999999999 221.14,165.85999999999999" fill="#eaeefc"/><rect x="276.43" y="110.57" width="55.29" height="55.29" fill="#ffe7ec"/><path d="M 276.43 165.85999999999999 A 55.29 55.29 0 0 1  331.72 110.57 L 331.72 165.85999999999999" fill="#889cf0"/><rect x="331.71" y="110.57" width="55.29" height="55.29" fill="#ff7f9e"/><rect x="331.71" y="110.57" width="55.29" height="55.29" fill="#5471e9"/><rect x="387" y="110.57" width="55.29" height="55.29" fill="#ff4874"/><polygon points="387,110.57 442.29,165.85999999999999 387,165.85999999999999" fill="#a1b1f3"/><rect x="442.29" y="110.57" width="55.29" height="55.29" fill="#b0bdf5"/><polygon points="442.29,110.57 497.58000000000004,110.57 442.29,165.85999999999999" fill="#ff7b9a"/><rect x="497.57" y="110.57" width="55.29" height="55.29" fill="#3f5fe6"/><path d="M 497.57 165.85999999999999 A 55.29 55.29 0 0 1  552.86 110.57 L 552.86 165.85999999999999" fill="#5e7aea"/><rect x="552.86" y="110.57" width="55.29" height="55.29" fill="#6982eb"/><polygon points="552.86,110.57 608.15,110.57 608.15,165.85999999999999" fill="#516fe8"/><rect x="0" y="165.86" width="55.29" height="55.29" fill="#abb9f4"/><rect x="0" y="165.86" width="55.29" height="55.29" fill="#e0e5fb"/><rect x="55.29" y="165.86" width="55.29" height="55.29" fill="#ffeff3"/><rect x="55.29" y="165.86" width="55.29" height="55.29" fill="#ffdce4"/><rect x="110.57" y="165.86" width="55.29" height="55.29" fill="#9aabf2"/><rect x="110.57" y="165.86" width="55.29" height="55.29" fill="#3658e5"/><rect x="165.86" y="165.86" width="55.29" height="55.29" fill="#395be5"/><rect x="165.86" y="165.86" width="55.29" height="55.29" fill="#5471e9"/><rect x="221.14" y="165.86" width="55.29" height="55.29" fill="#ff567e"/><polygon points="221.14,165.86 276.43,221.15 221.14,221.15" fill="#ff4470"/><rect x="276.43" y="165.86" width="55.29" height="55.29" fill="#e8ecfc"/><polygon points="276.43,165.86 331.72,221.15 276.43,221.15" fill="#ff93ac"/><rect x="331.71" y="165.86" width="55.29" height="55.29" fill="#4464e7"/><polygon points="331.71,165.86 387,165.86 331.71,221.15" fill="#778eed"/><rect x="387" y="165.86" width="55.29" height="55.29" fill="#ff7f9d"/><rect x="387" y="165.86" width="55.29" height="55.29" fill="#b0bef5"/><rect x="442.29" y="165.86" width="55.29" height="55.29" fill="#ffbbcb"/><rect x="442.29" y="165.86" width="55.29" height="55.29" fill="#d5dcfa"/><rect x="497.57" y="165.86" width="55.29" height="55.29" fill="#f1f4fd"/><rect x="497.57" y="165.86" width="55.29" height="55.29" fill="#a8b7f4"/><rect x="552.86" y="165.86" width="55.29" height="55.29" fill="#96a8f1"/><rect x="552.86" y="165.86" width="55.29" height="55.29" fill="#fbfbfe"/><rect x="0" y="221.14" width="55.29" height="55.29" fill="#637eeb"/><path d="M 0 221.14 A 55.29 55.29 0 0 1  55.29 276.43 L 0 221.14 A 55.29 55.29 0 0 0 55.29 276.43" fill="#a7b6f4"/><rect x="55.29" y="221.14" width="55.29" height="55.29" fill="#ff4b76"/><path d="M 55.29 221.14 A 55.29 55.29 0 0 1  110.58 276.43 L 55.29 221.14 A 55.29 55.29 0 0 0 110.58 276.43" fill="#2b4fe3"/><rect x="110.57" y="221.14" width="55.29" height="55.29" fill="#f2f4fd"/><rect x="110.57" y="221.14" width="55.29" height="55.29" fill="#ff98b0"/><rect x="165.86" y="221.14" width="55.29" height="55.29" fill="#a8b7f4"/><polygon points="221.15,221.14 221.15,276.43 165.86,276.43" fill="#92a5f1"/><rect x="221.14" y="221.14" width="55.29" height="55.29" fill="#ff3666"/><polygon points="276.43,221.14 276.43,276.43 221.14,276.43" fill="#5471e9"/><rect x="276.43" y="221.14" width="55.29" height="55.29" fill="#ff9bb3"/><rect x="276.43" y="221.14" width="55.29" height="55.29" fill="#4a69e8"/><rect x="331.71" y="221.14" width="55.29" height="55.29" fill="#ff3d6b"/><rect x="331.71" y="221.14" width="55.29" height="55.29" fill="#e8ecfc"/><rect x="387" y="221.14" width="55.29" height="55.29" fill="#ffa3b9"/><path d="M 387 276.43 A 55.29 55.29 0 0 1  442.29 221.14 L 442.29 276.43" fill="#9bacf2"/><rect x="442.29" y="221.14" width="55.29" height="55.29" fill="#ff3666"/><rect x="442.29" y="221.14" width="55.29" height="55.29" fill="#ffa1b7"/><rect x="497.57" y="221.14" width="55.29" height="55.29" fill="#ff5c82"/><polygon points="497.57,221.14 552.86,276.43 497.57,276.43" fill="#1d43e2"/><rect x="552.86" y="221.14" width="55.29" height="55.29" fill="#fff8fa"/><path d="M 552.86 276.43 A 55.29 55.29 0 0 1  608.15 221.14 L 608.15 276.43" fill="#3c5de6"/><rect x="0" y="276.43" width="55.29" height="55.29" fill="#ff7193"/><polygon points="0,276.43 55.29,276.43 0,331.72" fill="#ffd8e1"/><rect x="55.29" y="276.43" width="55.29" height="55.29" fill="#4363e7"/><rect x="55.29" y="276.43" width="55.29" height="55.29" fill="#ff97af"/><rect x="110.57" y="276.43" width="55.29" height="55.29" fill="#b3c0f5"/><rect x="110.57" y="276.43" width="55.29" height="55.29" fill="#ff416e"/><rect x="165.86" y="276.43" width="55.29" height="55.29" fill="#ffc8d5"/><rect x="165.86" y="276.43" width="55.29" height="55.29" fill="#c7d0f8"/><rect x="221.14" y="276.43" width="55.29" height="55.29" fill="#6a83ec"/><rect x="221.14" y="276.43" width="55.29" height="55.29" fill="#ff8ba7"/><rect x="276.43" y="276.43" width="55.29" height="55.29" fill="#95a7f1"/><polygon points="331.72,276.43 331.72,331.72 276.43,331.72" fill="#ffd9e2"/><rect x="331.71" y="276.43" width="55.29" height="55.29" fill="#3356e5"/><rect x="331.71" y="276.43" width="55.29" height="55.29" fill="#6982ec"/><rect x="387" y="276.43" width="55.29" height="55.29" fill="#6e87ec"/><rect x="387" y="276.43" width="55.29" height="55.29" fill="#ffb8c9"/><rect x="442.29" y="276.43" width="55.29" height="55.29" fill="#859aef"/><polygon points="497.58000000000004,276.43 497.58000000000004,331.72 442.29,331.72" fill="#ff8ea9"/><rect x="497.57" y="276.43" width="55.29" height="55.29" fill="#fff0f4"/><polygon points="497.57,276.43 552.86,276.43 497.57,331.72" fill="#ff5980"/><rect x="552.86" y="276.43" width="55.29" height="55.29" fill="#ff6086"/><polygon points="552.86,276.43 608.15,276.43 608.15,331.72" fill="#dae0fa"/><rect x="0" y="331.71" width="55.29" height="55.29" fill="#94a6f1"/><path d="M 0 331.71 A 55.29 55.29 0 0 1  55.29 387 L 0 331.71 A 55.29 55.29 0 0 0 55.29 387" fill="#ff5b82"/><rect x="55.29" y="331.71" width="55.29" height="55.29" fill="#bbc6f6"/><polygon points="55.29,331.71 110.58,331.71 55.29,387" fill="#ffbaca"/><rect x="110.57" y="331.71" width="55.29" height="55.29" fill="#ffc4d2"/><polygon points="165.85999999999999,331.71 165.85999999999999,387 110.57,387" fill="#ff8ca7"/><rect x="165.86" y="331.71" width="55.29" height="55.29" fill="#e1e6fb"/><path d="M 165.86 387 A 55.29 55.29 0 0 0 221.15 331.71 L 165.86 331.71" fill="#ff7395"/><rect x="221.14" y="331.71" width="55.29" height="55.29" fill="#ffa2b8"/><rect x="221.14" y="331.71" width="55.29" height="55.29" fill="#ff4773"/><rect x="276.43" y="331.71" width="55.29" height="55.29" fill="#ffa6bb"/><polygon points="276.43,331.71 331.72,331.71 331.72,387" fill="#fffcfd"/><rect x="331.71" y="331.71" width="55.29" height="55.29" fill="#ffeaef"/><path d="M 331.71 387 A 55.29 55.29 0 0 1  387 331.71 L 387 387" fill="#ffccd8"/><rect x="387" y="331.71" width="55.29" height="55.29" fill="#8ea1f0"/><path d="M 387 331.71 A 55.29 55.29 0 0 1 442.29 387 L 387 387" fill="#2146e2"/><rect x="442.29" y="331.71" width="55.29" height="55.29" fill="#ffd3dd"/><polygon points="497.58000000000004,331.71 497.58000000000004,387 442.29,387" fill="#ff96af"/><rect x="497.57" y="331.71" width="55.29" height="55.29" fill="#ff6288"/><path d="M 497.57 331.71 A 55.29 55.29 0 0 0 552.86 387 L 552.86 331.71" fill="#5773e9"/><rect x="552.86" y="331.71" width="55.29" height="55.29" fill="#ffd3dd"/><polygon points="552.86,331.71 608.15,331.71 552.86,387" fill="#ff5980"/></g></svg>